<svg height="315.954" viewBox="0 0 379.924 315.954" width="379.924" xmlns="http://www.w3.org/2000/svg" xmlns:xlink="http://www.w3.org/1999/xlink"><linearGradient id="a" gradientUnits="userSpaceOnUse" x1="229.86" x2="110.516" y1="312.983" y2="194.048"><stop offset=".16" stop-color="#2d5caa"/><stop offset=".709" stop-color="#153b64"/></linearGradient><linearGradient id="b" gradientUnits="userSpaceOnUse" x1="407.405" x2="-317.225" y1="-21.261" y2="186.506"><stop offset=".316" stop-color="#2d5caa"/><stop offset=".593" stop-color="#153b64"/></linearGradient><path d="m256.76 315.954h-114.88c0-6.26 5.08-11.34 11.34-11.34h10.7c5.9 0 10.68-4.78 10.68-10.68v-77.4h49.44v77.4c0 5.9 4.78 10.68 10.68 10.68h10.69c3.13 0 5.97 1.27 8.03 3.32 2.05 2.06 3.32 4.89 3.32 8.02z" fill="#2d5caa"/><path d="m224.04 216.534v23.58c0 13.01-15.3 16.01-21.77 27.75-6.15 11.15 2 20.25-7.93 30.48-7.95 8.2-20.13 10.51-22.95 17.61h-29.51c0-6.26 5.08-11.34 11.34-11.34h10.7c5.9 0 10.68-4.78 10.68-10.68v-77.4z" fill="url(#a)"/><rect fill="#2d5caa" height="205.02" rx="8" width="327.599" x="35.52" y="34.518"/><path d="m0 0h209.006v137.028h-209.006z" fill="#153b64"/><path d="m158.222 24.517v8h36.119v24h-60.028v8h23.909v8h-106.803v-8h19.753v-16h-19.753v-16h12.5v-8h-12.5v-8h6.97v-8h99.833v8h36.119v8zm-87.05 55.997v8h39.898v-8zm63.138 8h60.03v-8h-60.03zm41.12 8.003h-104.258v7.997h-.002v8h51.96v-7.997h22.57v7.997h37.66v-8h-7.93zm-104.26 24h25.935v-8h-25.935zm36 0h9.993v-8h-9.993zm34.71 8h33.55v-8h-33.55zm-18.579 0h12.129v-8h-12.129zm-110.161-112h27.465v-8h-27.465zm0 32h27.465v-8h-27.465zm0 40h27.465v-8h-27.465z" fill="url(#b)"/><path d="m162.575 151.576h217.349v72.539h-217.349z" fill="#9fdeed"/><path d="m263.306 20h68.954v71.818h-68.954z" fill="#9fdeed"/><path d="m229.905 101.818h35.21v35.21h-35.21z" fill="#3aafd9"/><rect fill="#3aafd9" height="28.81" rx="14.405" width="78.886" x="57.994" y="195.305"/><path d="m172.887 161.386h53.018v53.018h-53.018z" fill="#83d0ff"/><path d="m352.26 71.818h-68.954v-71.818h52.468l16.486 16.486z" fill="#3aafd9"/><path d="m335.774 16.486h16.486l-16.486-16.486z" fill="#153b64"/><path d="m225.905 215.405c-.256 0-.512-.098-.707-.293l-53.018-53.019c-.391-.391-.391-1.023 0-1.414s1.024-.391 1.414 0l53.018 53.019c.391.391.391 1.023 0 1.414-.195.195-.451.293-.707.293z" fill="#9fdeed"/><path d="m172.887 215.405c-.256 0-.512-.098-.707-.293-.391-.391-.391-1.023 0-1.414l53.018-53.019c.391-.391 1.024-.391 1.414 0s.391 1.023 0 1.414l-53.018 53.019c-.195.195-.451.293-.707.293z" fill="#9fdeed"/><g fill="#83d0ff"><path d="m239.985 161.386h24.395v8h-24.395z"/><path d="m277.963 161.386h73.044v8h-73.044z"/><path d="m239.985 176.386h24.395v8h-24.395z"/><path d="m277.963 176.386h93.848v8h-93.848z"/><path d="m239.985 192.386h24.395v8h-24.395z"/><path d="m277.963 192.386h46.924v8h-46.924z"/></g><path d="m257.421 130.335c-.256 0-.512-.098-.707-.293l-19.823-19.823c-.391-.391-.391-1.023 0-1.414s1.024-.391 1.414 0l19.823 19.823c.391.391.391 1.023 0 1.414-.195.195-.451.293-.707.293z" fill="#9fdeed"/><path d="m237.599 130.335c-.256 0-.512-.098-.707-.293-.391-.391-.391-1.023 0-1.414l19.823-19.823c.391-.391 1.024-.391 1.414 0 .391.391.391 1.023 0 1.414l-19.823 19.823c-.195.195-.451.293-.707.293z" fill="#9fdeed"/><circle cx="73.27" cy="209.71" fill="#9fdeed" r="11.381"/><rect fill="#83d0ff" height="28.81" rx="14.405" width="78.886" x="57.994" y="151.576"/><circle cx="121.605" cy="165.981" fill="#3aafd9" r="11.381"/><path d="m332.162 47.923c-.314 0-.623-.147-.818-.423-.319-.451-.211-1.075.24-1.394l11.335-8.005-11.335-8.005c-.451-.319-.558-.943-.24-1.394.319-.451.943-.558 1.394-.24l12.492 8.822c.265.188.423.492.423.817s-.158.629-.423.817l-12.492 8.822c-.175.124-.377.183-.576.183z" fill="#9fdeed"/><path d="m302.871 47.923c-.199 0-.401-.06-.576-.183l-12.492-8.822c-.265-.188-.423-.492-.423-.817s.158-.629.423-.817l12.492-8.822c.451-.318 1.075-.211 1.394.24.318.451.211 1.075-.24 1.394l-11.335 8.005 11.335 8.005c.451.319.558.943.24 1.394-.195.276-.504.423-.818.423z" fill="#9fdeed"/><path d="m311.787 55.769c-.119 0-.239-.021-.356-.066-.516-.197-.775-.775-.578-1.291l11.458-30.014c.197-.516.775-.774 1.291-.578.516.197.775.775.578 1.291l-11.458 30.014c-.152.399-.532.644-.934.644z" fill="#9fdeed"/></svg>